<?xml version="1.0" standalone="no"?>
<!DOCTYPE svg PUBLIC "-//W3C//DTD SVG 20010904//EN"
 "http://www.w3.org/TR/2001/REC-SVG-20010904/DTD/svg10.dtd">
<svg version="1.0" xmlns="http://www.w3.org/2000/svg"
 width="1024.000000pt" height="1024.000000pt" viewBox="0 0 1024.000000 1024.000000"
 preserveAspectRatio="xMidYMid meet">
<metadata>
Created by potrace 1.11, written by Peter Selinger 2001-2013
</metadata>
<g transform="translate(0.000000,1024.000000) scale(0.100000,-0.100000)"
fill="#000000" stroke="none">
<path d="M5005 9468 c-49 -4 -115 -13 -145 -19 -30 -5 -68 -12 -83 -14 -51 -7
-221 -57 -292 -85 -11 -4 -36 -14 -55 -21 -62 -22 -263 -124 -348 -177 -223
-138 -461 -349 -612 -542 -43 -55 -62 -79 -75 -94 -22 -24 -93 -125 -140 -196
-27 -41 -56 -86 -65 -100 -9 -14 -19 -32 -23 -40 -4 -8 -18 -33 -32 -55 -14
-22 -59 -107 -99 -190 -240 -486 -385 -1042 -434 -1655 -13 -173 -6 -593 13
-750 3 -19 7 -57 10 -85 3 -27 7 -63 10 -80 10 -75 25 -165 35 -220 6 -33 13
-73 16 -90 11 -59 67 -283 105 -417 64 -221 146 -438 273 -722 60 -132 199
-401 291 -561 80 -140 299 -483 359 -560 69 -91 268 -339 301 -375 200 -221
414 -428 558 -538 l56 -44 121 74 c67 40 138 83 158 96 20 12 47 28 60 34 12
6 22 14 22 18 0 4 -30 34 -67 66 -331 291 -508 465 -683 670 -14 16 -64 81
-111 144 -442 592 -764 1216 -945 1835 -49 169 -109 439 -130 585 -2 19 -6 44
-9 55 -2 11 -7 49 -11 85 -3 36 -10 94 -14 130 -8 72 -5 631 4 695 3 22 8 65
10 95 13 190 80 522 153 765 126 423 334 826 583 1135 68 83 212 234 277 287
12 10 32 27 45 38 110 94 319 223 463 286 107 47 303 102 415 117 102 13 310
7 415 -12 339 -63 665 -246 955 -536 69 -69 160 -172 203 -230 43 -58 85 -113
93 -123 75 -93 257 -442 337 -647 68 -175 155 -459 174 -570 2 -14 6 -33 9
-42 3 -10 7 -30 10 -45 2 -16 9 -50 14 -78 21 -113 38 -219 46 -305 9 -83 10
-89 16 -95 3 -3 68 -28 144 -54 77 -26 169 -60 206 -74 l67 -26 -4 42 c-2 23
-6 85 -10 137 -3 52 -8 109 -10 125 -2 17 -7 53 -10 80 -17 138 -33 234 -71
415 -22 107 -100 393 -113 415 -3 6 -6 15 -7 20 -13 70 -147 391 -234 560
-112 218 -186 336 -329 523 -210 274 -477 511 -759 674 -351 203 -744 297
-1107 266z"/>
<path d="M4669 6456 c-2 -2 -74 -6 -159 -10 -85 -3 -177 -8 -205 -11 -81 -7
-178 -16 -210 -20 -16 -2 -55 -6 -85 -10 -63 -7 -112 -14 -155 -21 -103 -17
-199 -35 -260 -49 -38 -8 -79 -17 -90 -20 -109 -24 -285 -81 -290 -93 -3 -9
-8 -107 -11 -218 l-5 -202 133 39 c131 38 150 44 206 54 15 3 35 8 44 11 9 3
25 7 36 9 10 2 77 15 148 29 71 14 152 28 179 31 28 4 57 8 65 10 8 2 42 7 75
10 33 3 69 8 80 10 11 2 56 6 100 10 44 3 94 8 110 10 153 20 993 28 1245 11
69 -4 148 -9 175 -11 47 -3 107 -9 215 -21 25 -2 81 -9 125 -15 44 -6 91 -13
105 -14 95 -11 325 -56 489 -96 111 -28 396 -116 446 -138 11 -5 52 -21 90
-36 39 -15 86 -34 105 -42 19 -9 55 -25 80 -35 112 -50 323 -156 404 -205 49
-29 90 -53 93 -53 10 0 259 -170 358 -245 507 -382 920 -890 1121 -1380 83
-204 155 -462 171 -617 8 -87 8 -290 0 -366 -9 -78 -67 -306 -100 -392 -219
-579 -798 -986 -1574 -1105 -157 -25 -244 -30 -468 -30 -243 1 -342 8 -535 41
-142 23 -216 37 -221 40 -4 2 -40 11 -80 20 -197 42 -486 134 -732 233 -70 28
-131 51 -137 51 -5 0 -42 -27 -83 -59 -41 -33 -123 -94 -182 -137 l-108 -78
114 -54 c63 -29 152 -69 199 -88 47 -19 99 -41 115 -49 126 -57 529 -182 740
-231 90 -20 86 -19 140 -28 22 -4 47 -8 55 -11 21 -6 203 -33 280 -41 36 -3
68 -8 71 -10 8 -5 309 -18 414 -18 92 0 286 12 340 20 17 3 37 5 45 5 53 2
343 57 440 85 30 8 80 22 110 31 30 8 61 19 68 25 6 6 12 8 12 5 0 -9 191 68
302 122 101 49 188 96 238 129 14 9 32 21 41 27 185 119 400 316 520 478 75
100 179 270 179 291 0 8 4 16 8 18 13 5 86 183 121 293 66 214 92 406 87 640
-3 94 -7 181 -10 195 -2 14 -7 45 -11 70 -3 25 -8 56 -10 70 -6 40 -45 214
-52 230 -3 8 -7 22 -8 30 -10 68 -120 349 -200 510 -52 106 -66 131 -124 229
-39 65 -171 264 -180 271 -4 3 -18 21 -31 40 -99 145 -389 456 -577 620 -407
354 -861 629 -1378 835 -66 26 -129 51 -140 56 -42 17 -274 90 -380 118 -276
74 -624 137 -860 156 -27 2 -60 6 -72 9 -12 2 -66 7 -120 11 -54 4 -114 9
-133 12 -39 5 -1055 14 -1061 9z"/>
<path d="M2300 5853 c-492 -260 -850 -544 -1255 -993 -46 -51 -185 -227 -239
-303 -208 -292 -410 -716 -495 -1042 -21 -83 -56 -271 -66 -360 -22 -190 -8
-484 31 -655 10 -41 19 -80 20 -86 17 -88 86 -278 150 -409 205 -423 540 -747
1009 -975 398 -194 840 -292 1320 -294 89 0 328 12 360 19 11 2 49 7 85 10 73
7 93 9 235 31 55 8 128 21 163 29 34 8 77 17 95 20 227 39 698 206 1007 358
133 65 204 104 420 229 113 65 347 230 494 348 190 152 466 424 614 605 31 38
65 79 76 90 85 91 362 491 488 705 174 295 387 730 501 1020 79 201 201 590
221 700 2 14 11 52 19 85 15 56 67 320 67 337 0 11 -387 195 -391 185 -2 -6
-8 -43 -23 -137 -22 -135 -58 -305 -97 -450 -17 -63 -32 -122 -34 -130 -11
-47 -120 -363 -163 -470 -120 -299 -274 -613 -432 -880 -33 -56 -60 -104 -60
-106 0 -3 -5 -10 -10 -17 -6 -7 -40 -59 -76 -117 -330 -527 -801 -1013 -1297
-1340 -67 -44 -126 -84 -132 -88 -11 -8 -109 -64 -210 -120 -294 -161 -748
-332 -1055 -398 -93 -20 -272 -54 -307 -58 -24 -3 -62 -9 -85 -12 -187 -26
-520 -36 -708 -20 -361 30 -645 109 -945 261 -534 272 -850 704 -929 1272 -16
112 -18 357 -5 453 6 36 12 81 14 100 5 43 57 236 83 310 41 116 128 321 153
360 5 8 13 24 18 35 45 103 223 375 345 530 108 135 129 159 286 315 220 219
468 411 738 572 l122 73 -5 119 c-4 65 -8 137 -11 160 -2 22 -6 70 -9 105 -2
35 -6 65 -7 67 -2 1 -41 -18 -88 -43z"/>
</g>
</svg>
